<mxfile host="app.diagrams.net" agent="Mozilla/5.0 (X11; Linux x86_64) AppleWebKit/537.36 (KHTML, like Gecko) Chrome/129.0.0.0 Safari/537.36" version="26.1.1">
  <diagram name="Page-1" id="ykEuWZaL9iQ2RNe-j45m">
    <mxGraphModel dx="1024" dy="628" grid="1" gridSize="10" guides="1" tooltips="1" connect="1" arrows="1" fold="1" page="1" pageScale="1" pageWidth="850" pageHeight="1100" math="0" shadow="0">
      <root>
        <mxCell id="0" />
        <mxCell id="1" parent="0" />
        <mxCell id="bpBISIvQxORSquI7YpXC-11" style="edgeStyle=orthogonalEdgeStyle;rounded=0;orthogonalLoop=1;jettySize=auto;html=1;entryX=0;entryY=0.5;entryDx=0;entryDy=0;endArrow=none;startFill=0;" edge="1" parent="1" source="bpBISIvQxORSquI7YpXC-1" target="bpBISIvQxORSquI7YpXC-2">
          <mxGeometry relative="1" as="geometry" />
        </mxCell>
        <mxCell id="bpBISIvQxORSquI7YpXC-1" value="" style="ellipse;whiteSpace=wrap;html=1;aspect=fixed;" vertex="1" parent="1">
          <mxGeometry x="240" y="480" width="20" height="20" as="geometry" />
        </mxCell>
        <mxCell id="bpBISIvQxORSquI7YpXC-2" value="" style="ellipse;whiteSpace=wrap;html=1;aspect=fixed;" vertex="1" parent="1">
          <mxGeometry x="440" y="480" width="20" height="20" as="geometry" />
        </mxCell>
        <mxCell id="bpBISIvQxORSquI7YpXC-10" style="edgeStyle=orthogonalEdgeStyle;rounded=0;orthogonalLoop=1;jettySize=auto;html=1;entryX=0.5;entryY=0;entryDx=0;entryDy=0;endArrow=none;startFill=0;" edge="1" parent="1" source="bpBISIvQxORSquI7YpXC-3" target="bpBISIvQxORSquI7YpXC-1">
          <mxGeometry relative="1" as="geometry" />
        </mxCell>
        <mxCell id="bpBISIvQxORSquI7YpXC-3" value="" style="ellipse;whiteSpace=wrap;html=1;aspect=fixed;" vertex="1" parent="1">
          <mxGeometry x="240" y="280" width="20" height="20" as="geometry" />
        </mxCell>
        <mxCell id="bpBISIvQxORSquI7YpXC-5" value="" style="ellipse;whiteSpace=wrap;html=1;aspect=fixed;" vertex="1" parent="1">
          <mxGeometry x="440" y="280" width="20" height="20" as="geometry" />
        </mxCell>
        <mxCell id="bpBISIvQxORSquI7YpXC-6" value="" style="ellipse;whiteSpace=wrap;html=1;aspect=fixed;" vertex="1" parent="1">
          <mxGeometry x="350" y="360" width="20" height="20" as="geometry" />
        </mxCell>
        <mxCell id="bpBISIvQxORSquI7YpXC-7" value="" style="ellipse;whiteSpace=wrap;html=1;aspect=fixed;" vertex="1" parent="1">
          <mxGeometry x="550" y="360" width="20" height="20" as="geometry" />
        </mxCell>
        <mxCell id="bpBISIvQxORSquI7YpXC-8" value="" style="ellipse;whiteSpace=wrap;html=1;aspect=fixed;" vertex="1" parent="1">
          <mxGeometry x="350" y="160" width="20" height="20" as="geometry" />
        </mxCell>
        <mxCell id="bpBISIvQxORSquI7YpXC-9" value="" style="ellipse;whiteSpace=wrap;html=1;aspect=fixed;" vertex="1" parent="1">
          <mxGeometry x="550" y="160" width="20" height="20" as="geometry" />
        </mxCell>
        <mxCell id="bpBISIvQxORSquI7YpXC-12" value="" style="endArrow=none;html=1;rounded=0;exitX=1;exitY=0;exitDx=0;exitDy=0;entryX=0;entryY=1;entryDx=0;entryDy=0;" edge="1" parent="1" source="bpBISIvQxORSquI7YpXC-2" target="bpBISIvQxORSquI7YpXC-7">
          <mxGeometry width="50" height="50" relative="1" as="geometry">
            <mxPoint x="430" y="380" as="sourcePoint" />
            <mxPoint x="480" y="330" as="targetPoint" />
          </mxGeometry>
        </mxCell>
        <mxCell id="bpBISIvQxORSquI7YpXC-13" value="" style="endArrow=none;html=1;rounded=0;exitX=0.5;exitY=0;exitDx=0;exitDy=0;entryX=0.5;entryY=1;entryDx=0;entryDy=0;" edge="1" parent="1" source="bpBISIvQxORSquI7YpXC-2" target="bpBISIvQxORSquI7YpXC-5">
          <mxGeometry width="50" height="50" relative="1" as="geometry">
            <mxPoint x="467" y="493" as="sourcePoint" />
            <mxPoint x="563" y="387" as="targetPoint" />
          </mxGeometry>
        </mxCell>
        <mxCell id="bpBISIvQxORSquI7YpXC-14" style="edgeStyle=orthogonalEdgeStyle;rounded=0;orthogonalLoop=1;jettySize=auto;html=1;endArrow=none;startFill=0;exitX=0;exitY=0.5;exitDx=0;exitDy=0;" edge="1" parent="1" source="bpBISIvQxORSquI7YpXC-5">
          <mxGeometry relative="1" as="geometry">
            <mxPoint x="260" y="310" as="sourcePoint" />
            <mxPoint x="260" y="290" as="targetPoint" />
          </mxGeometry>
        </mxCell>
        <mxCell id="bpBISIvQxORSquI7YpXC-16" value="" style="endArrow=none;html=1;rounded=0;exitX=1;exitY=0;exitDx=0;exitDy=0;entryX=0;entryY=1;entryDx=0;entryDy=0;" edge="1" parent="1">
          <mxGeometry width="50" height="50" relative="1" as="geometry">
            <mxPoint x="254" y="280" as="sourcePoint" />
            <mxPoint x="350" y="174" as="targetPoint" />
          </mxGeometry>
        </mxCell>
        <mxCell id="bpBISIvQxORSquI7YpXC-17" value="" style="endArrow=none;html=1;rounded=0;exitX=1;exitY=0;exitDx=0;exitDy=0;entryX=0;entryY=1;entryDx=0;entryDy=0;" edge="1" parent="1">
          <mxGeometry width="50" height="50" relative="1" as="geometry">
            <mxPoint x="458" y="283" as="sourcePoint" />
            <mxPoint x="554" y="177" as="targetPoint" />
          </mxGeometry>
        </mxCell>
        <mxCell id="bpBISIvQxORSquI7YpXC-18" style="edgeStyle=orthogonalEdgeStyle;rounded=0;orthogonalLoop=1;jettySize=auto;html=1;endArrow=none;startFill=0;exitX=0;exitY=0.5;exitDx=0;exitDy=0;" edge="1" parent="1">
          <mxGeometry relative="1" as="geometry">
            <mxPoint x="550" y="169.64" as="sourcePoint" />
            <mxPoint x="370" y="169.64" as="targetPoint" />
          </mxGeometry>
        </mxCell>
        <mxCell id="bpBISIvQxORSquI7YpXC-19" value="" style="endArrow=none;html=1;rounded=0;exitX=0.5;exitY=0;exitDx=0;exitDy=0;entryX=0.5;entryY=1;entryDx=0;entryDy=0;" edge="1" parent="1">
          <mxGeometry width="50" height="50" relative="1" as="geometry">
            <mxPoint x="559.64" y="360" as="sourcePoint" />
            <mxPoint x="559.64" y="180" as="targetPoint" />
          </mxGeometry>
        </mxCell>
        <mxCell id="bpBISIvQxORSquI7YpXC-20" value="" style="endArrow=none;html=1;rounded=0;exitX=0.5;exitY=0;exitDx=0;exitDy=0;entryX=0.5;entryY=1;entryDx=0;entryDy=0;dashed=1;dashPattern=8 8;" edge="1" parent="1">
          <mxGeometry width="50" height="50" relative="1" as="geometry">
            <mxPoint x="359.64" y="360" as="sourcePoint" />
            <mxPoint x="359.64" y="180" as="targetPoint" />
          </mxGeometry>
        </mxCell>
        <mxCell id="bpBISIvQxORSquI7YpXC-21" style="edgeStyle=orthogonalEdgeStyle;rounded=0;orthogonalLoop=1;jettySize=auto;html=1;entryX=0;entryY=0.5;entryDx=0;entryDy=0;endArrow=none;startFill=0;dashed=1;dashPattern=8 8;" edge="1" parent="1">
          <mxGeometry relative="1" as="geometry">
            <mxPoint x="370" y="369.64" as="sourcePoint" />
            <mxPoint x="550" y="369.64" as="targetPoint" />
          </mxGeometry>
        </mxCell>
        <mxCell id="bpBISIvQxORSquI7YpXC-22" value="" style="endArrow=none;html=1;rounded=0;exitX=1;exitY=0;exitDx=0;exitDy=0;entryX=0;entryY=1;entryDx=0;entryDy=0;dashed=1;dashPattern=8 8;" edge="1" parent="1">
          <mxGeometry width="50" height="50" relative="1" as="geometry">
            <mxPoint x="257" y="482" as="sourcePoint" />
            <mxPoint x="353" y="376" as="targetPoint" />
          </mxGeometry>
        </mxCell>
        <mxCell id="bpBISIvQxORSquI7YpXC-23" value="000" style="text;html=1;align=center;verticalAlign=middle;resizable=0;points=[];autosize=1;strokeColor=none;fillColor=none;" vertex="1" parent="1">
          <mxGeometry x="200" y="500" width="40" height="30" as="geometry" />
        </mxCell>
        <mxCell id="bpBISIvQxORSquI7YpXC-24" value="001" style="text;html=1;align=center;verticalAlign=middle;resizable=0;points=[];autosize=1;strokeColor=none;fillColor=none;" vertex="1" parent="1">
          <mxGeometry x="456" y="500" width="40" height="30" as="geometry" />
        </mxCell>
        <mxCell id="bpBISIvQxORSquI7YpXC-25" value="101" style="text;html=1;align=center;verticalAlign=middle;resizable=0;points=[];autosize=1;strokeColor=none;fillColor=none;" vertex="1" parent="1">
          <mxGeometry x="570" y="330" width="40" height="30" as="geometry" />
        </mxCell>
        <mxCell id="bpBISIvQxORSquI7YpXC-26" value="111" style="text;html=1;align=center;verticalAlign=middle;resizable=0;points=[];autosize=1;strokeColor=none;fillColor=none;" vertex="1" parent="1">
          <mxGeometry x="570" y="130" width="40" height="30" as="geometry" />
        </mxCell>
        <mxCell id="bpBISIvQxORSquI7YpXC-27" value="110" style="text;html=1;align=center;verticalAlign=middle;resizable=0;points=[];autosize=1;strokeColor=none;fillColor=none;" vertex="1" parent="1">
          <mxGeometry x="370" y="130" width="40" height="30" as="geometry" />
        </mxCell>
        <mxCell id="bpBISIvQxORSquI7YpXC-28" value="010" style="text;html=1;align=center;verticalAlign=middle;resizable=0;points=[];autosize=1;strokeColor=none;fillColor=none;" vertex="1" parent="1">
          <mxGeometry x="200" y="260" width="40" height="30" as="geometry" />
        </mxCell>
        <mxCell id="bpBISIvQxORSquI7YpXC-29" value="100" style="text;html=1;align=center;verticalAlign=middle;resizable=0;points=[];autosize=1;strokeColor=none;fillColor=none;" vertex="1" parent="1">
          <mxGeometry x="370" y="330" width="40" height="30" as="geometry" />
        </mxCell>
        <mxCell id="bpBISIvQxORSquI7YpXC-30" value="011" style="text;html=1;align=center;verticalAlign=middle;resizable=0;points=[];autosize=1;strokeColor=none;fillColor=none;" vertex="1" parent="1">
          <mxGeometry x="460" y="275" width="40" height="30" as="geometry" />
        </mxCell>
      </root>
    </mxGraphModel>
  </diagram>
</mxfile>
